<svg height='300px' width='300px'  fill="#FFFFFF" xmlns="http://www.w3.org/2000/svg" xmlns:xlink="http://www.w3.org/1999/xlink" version="1.1" x="0px" y="0px" viewBox="0 0 48 48" enable-background="new 0 0 48 48" xml:space="preserve"><g><path d="M20.3,34.2L12.9,29v-3.2c0-1.3-0.7-2.3-1.8-2.9v-4c0-2.3-1.9-4.2-4.2-4.2c-2.3,0-4.2,1.9-4.2,4.2v13.2   c0,1.4,0.7,2.7,1.9,3.5l9.3,6.2v5c0,0.6,0.4,1,1,1c0.6,0,1-0.4,1-1v-5.6c0-0.3-0.2-0.6-0.4-0.8L5.6,34c-0.6-0.4-1-1.1-1-1.8V18.9   c0-1.2,1-2.2,2.2-2.2s2.2,1,2.2,2.2v3.7c-1.6,0.2-2.8,1.6-2.8,3.2v4.9c0,0.6,0.4,1,1,1s1-0.4,1-1v-4.9c0-0.7,0.6-1.3,1.3-1.3   c0.7,0,1.3,0.6,1.3,1.3v3.7c0,0,0,0.7,0.4,0.8c0.4,0.1,0,0,0.1,0.1l7.9,5.5c0.6,0.4,1,1.1,1,1.8v9.3c0,0.6,0.4,1,1,1s1-0.4,1-1   v-9.3C22.2,36.2,21.5,34.9,20.3,34.2z"></path><path d="M41.1,14.7c-2.3,0-4.2,1.9-4.2,4.2v4c-1,0.5-1.8,1.6-1.8,2.9V29l-7.5,5.2c-1.2,0.8-1.9,2.1-1.9,3.5v9.3c0,0.6,0.4,1,1,1   c0.6,0,1-0.4,1-1v-9.3c0-0.7,0.4-1.4,1-1.8l7.9-5.5c0,0,0.4-0.3,0.4-0.8v-3.7c0-0.7,0.6-1.3,1.3-1.3c0.7,0,1.3,0.6,1.3,1.3v4.9   c0,0.6,0.4,1,1,1c0.6,0,1-0.4,1-1v-4.9c0-1.6-1.2-3-2.8-3.2v-3.7c0-1.2,1-2.2,2.2-2.2c1.2,0,2.2,1,2.2,2.2v13.2   c0,0.7-0.4,1.4-1,1.8l-9.7,6.5c-0.3,0.2-0.4,0.5-0.4,0.8v5.6c0,0.6,0.4,1,1,1c0.6,0,1-0.4,1-1v-5l9.3-6.2c1.2-0.8,1.9-2.1,1.9-3.5   V18.9C45.3,16.6,43.4,14.7,41.1,14.7z"></path><path d="M33.5,18.6c0-4.9-7.8-16.7-8.7-18.1c-0.2-0.3-0.5-0.4-0.8-0.4c-0.3,0-0.6,0.2-0.8,0.4c-0.9,1.3-8.7,13.2-8.7,18.1   c0,5.2,4.3,9.5,9.5,9.5C29.2,28.1,33.5,23.9,33.5,18.6z M24,26.1c-4.1,0-7.5-3.4-7.5-7.5c0-3.2,4.8-11.5,7.5-15.7   c2.7,4.2,7.5,12.5,7.5,15.7C31.5,22.8,28.1,26.1,24,26.1z"></path><path d="M24,22.1c-1.9,0-3.5-1.6-3.5-3.5c0-0.6-0.4-1-1-1s-1,0.4-1,1c0,3,2.5,5.5,5.5,5.5c0.6,0,1-0.4,1-1   C25,22.6,24.6,22.1,24,22.1z"></path></g></svg>